<svg width="30" height="30" viewBox="0 0 30 30" fill="none" xmlns="http://www.w3.org/2000/svg">
<path fill-rule="evenodd" clip-rule="evenodd" d="M8.81591 1.05353C10.4155 0.984164 10.9255 0.96875 15 0.96875C19.0745 0.96875 19.5845 0.985448 21.1827 1.05353C22.7809 1.12161 23.8718 1.36181 24.8264 1.7099C25.8259 2.06571 26.7327 2.6219 27.4827 3.34122C28.2464 4.0464 28.8355 4.89931 29.2118 5.84213C29.5827 6.74128 29.8364 7.76888 29.91 9.27174C29.9836 10.781 30 11.2614 30 15.0982C30 18.9363 29.9823 19.4167 29.91 20.9234C29.8377 22.4263 29.5827 23.4539 29.2118 24.353C28.8354 25.296 28.2454 26.1503 27.4827 26.8565C26.7327 27.5758 25.8259 28.1307 24.8264 28.4852C23.8718 28.8346 22.7809 29.0735 21.1855 29.1429C19.5845 29.2123 19.0745 29.2277 15 29.2277C10.9255 29.2277 10.4155 29.211 8.81591 29.1429C7.22045 29.0748 6.12955 28.8346 5.175 28.4852C4.17398 28.1307 3.26703 27.5749 2.51727 26.8565C1.75415 26.1509 1.16361 25.297 0.786818 24.3543C0.417273 23.4552 0.163636 22.4276 0.09 20.9247C0.0163636 19.4154 0 18.935 0 15.0982C0 11.2601 0.0177273 10.7797 0.09 9.27431C0.162273 7.76888 0.417273 6.74128 0.786818 5.84213C1.16417 4.89942 1.75516 4.04552 2.51864 3.33993C3.26733 2.62126 4.17337 2.065 5.17364 1.7099C6.12818 1.36181 7.21909 1.12289 8.81455 1.05353H8.81591ZM21.0614 3.59683C19.4795 3.52875 19.005 3.51462 15 3.51462C10.995 3.51462 10.5205 3.52875 8.93864 3.59683C7.47545 3.65977 6.68182 3.8897 6.15273 4.08365C5.45318 4.34055 4.95273 4.64498 4.42773 5.13951C3.93006 5.59557 3.54706 6.15077 3.30682 6.7644C3.10091 7.26278 2.85682 8.01036 2.79 9.38863C2.71773 10.8786 2.70273 11.3256 2.70273 15.0982C2.70273 18.8708 2.71773 19.3178 2.79 20.8078C2.85682 22.1861 3.10091 22.9336 3.30682 23.432C3.54682 24.0447 3.93 24.6009 4.42773 25.0569C4.91182 25.5258 5.50227 25.8867 6.15273 26.1128C6.68182 26.3067 7.47545 26.5367 8.93864 26.5996C10.5205 26.6677 10.9936 26.6818 15 26.6818C19.0064 26.6818 19.4795 26.6677 21.0614 26.5996C22.5245 26.5367 23.3182 26.3067 23.8473 26.1128C24.5468 25.8559 25.0473 25.5515 25.5723 25.0569C26.07 24.6009 26.4532 24.0447 26.6932 23.432C26.8991 22.9336 27.1432 22.1861 27.21 20.8078C27.2823 19.3178 27.2973 18.8708 27.2973 15.0982C27.2973 11.3256 27.2823 10.8786 27.21 9.38863C27.1432 8.01036 26.8991 7.26278 26.6932 6.7644C26.4205 6.10545 26.0973 5.63404 25.5723 5.13951C25.0881 4.67076 24.4987 4.31 23.8473 4.08365C23.3182 3.8897 22.5245 3.65977 21.0614 3.59683ZM13.0841 19.4539C14.1541 19.8735 15.3455 19.9301 16.4549 19.6141C17.5643 19.2982 18.5228 18.6292 19.1667 17.7215C19.8107 16.8137 20.1001 15.7236 19.9855 14.6372C19.871 13.5508 19.3596 12.5356 18.5386 11.7649C18.0153 11.2723 17.3826 10.8951 16.6859 10.6605C15.9893 10.4258 15.246 10.3396 14.5098 10.408C13.7735 10.4764 13.0625 10.6978 12.4279 11.0561C11.7933 11.4144 11.251 11.9008 10.84 12.4802C10.4289 13.0597 10.1593 13.7178 10.0507 14.4071C9.94206 15.0965 9.99702 15.7999 10.2116 16.4669C10.4263 17.1338 10.7952 17.7476 11.2919 18.2641C11.7886 18.7807 12.4007 19.187 13.0841 19.4539ZM9.54818 9.9628C10.2641 9.2884 11.1141 8.75345 12.0495 8.38847C12.9849 8.02349 13.9875 7.83564 15 7.83564C16.0125 7.83564 17.0151 8.02349 17.9505 8.38847C18.8859 8.75345 19.7359 9.2884 20.4518 9.9628C21.1678 10.6372 21.7357 11.4378 22.1231 12.3189C22.5106 13.2001 22.71 14.1445 22.71 15.0982C22.71 16.0519 22.5106 16.9963 22.1231 17.8775C21.7357 18.7586 21.1678 19.5592 20.4518 20.2336C19.0059 21.5956 17.0448 22.3608 15 22.3608C12.9552 22.3608 10.9941 21.5956 9.54818 20.2336C8.10227 18.8716 7.28997 17.0244 7.28997 15.0982C7.28997 13.1721 8.10227 11.3248 9.54818 9.9628ZM24.42 8.91722C24.5974 8.75957 24.7394 8.56999 24.8377 8.35971C24.9359 8.14943 24.9884 7.92272 24.9919 7.693C24.9955 7.46328 24.9501 7.23523 24.8584 7.02234C24.7667 6.80945 24.6306 6.61605 24.4581 6.4536C24.2857 6.29115 24.0804 6.16294 23.8544 6.07657C23.6283 5.9902 23.3862 5.94743 23.1424 5.95078C22.8985 5.95413 22.6578 6.00353 22.4346 6.09607C22.2113 6.18861 22.0101 6.3224 21.8427 6.48952C21.5172 6.81453 21.339 7.24624 21.346 7.693C21.3529 8.13976 21.5444 8.56639 21.8798 8.88233C22.2152 9.19827 22.6681 9.37864 23.1424 9.38516C23.6167 9.39167 24.075 9.22381 24.42 8.91722Z" fill="#0FB6CC"/>
</svg>
