<svg width="100" height="48" viewBox="0 0 100 48" fill="none" xmlns="http://www.w3.org/2000/svg">
<g clip-path="url(#clip0_11_1274)">
<path d="M15.296 37.4286C10.7053 37.4286 7.00854 35.8865 4.20554 32.8024C1.40255 29.7182 0.000738992 25.6352 0 20.5536C0 14.7717 1.75192 9.90045 5.25584 5.93982C8.75977 1.97919 13.0707 -0.000935745 18.1886 -0.000566249C20.0871 -0.0130906 21.982 0.172665 23.842 0.553678C25.1191 0.777034 26.3637 1.15678 27.5481 1.68434L28.6012 2.26241L25.5529 9.56901C24.2212 8.73653 22.7904 8.07422 21.294 7.59756C19.7775 7.0359 18.1795 6.72551 16.563 6.67863C15.2718 6.63012 13.9862 6.87447 12.8028 7.39336C11.6194 7.91226 10.5688 8.69224 9.72971 9.67487C8.0123 11.6701 7.15396 14.3157 7.1547 17.6116C7.1547 22.0633 7.9697 25.5329 9.59954 28.0203C10.3021 29.1891 11.3023 30.1504 12.498 30.8062C13.6936 31.4619 15.0418 31.7885 16.405 31.7526C18.2223 31.7643 20.0308 31.4984 21.7679 30.9639V22.8165H14.9879L15.5127 17.5074H28.1295L27.6556 26.0755L28.0231 35.1695C22.8676 36.676 18.6251 37.429 15.296 37.4286Z" fill="#009977"/>
<path d="M29.0352 9.80399L35.3968 8.43723C35.7127 11.1364 35.9226 13.6946 36.0264 16.1118C39.2155 11.1713 42.2121 8.70068 45.0162 8.69994L44.4376 16.9027C42.8161 16.8518 41.1958 17.0376 39.6279 17.4542C38.2874 17.9211 37.06 18.6645 36.0253 19.6363V21.5285L36.6039 33.882L29.5611 35.1956L30.1907 22.4219C30.0953 18.1944 29.7092 13.9785 29.0352 9.80399Z" fill="#00B9CF"/>
<path d="M51.8567 36.2198C52.9706 36.1957 54.0654 35.9264 55.0635 35.4311C56.0012 35.0163 56.884 34.4866 57.6913 33.8543L58.6372 33.0656L61.056 36.0098C60.5904 36.752 60.0434 37.4398 59.4249 38.0605C58.743 38.7852 57.9954 39.4451 57.1918 40.0319C56.267 40.6612 55.2579 41.1568 54.1945 41.504C52.9535 41.9418 51.6468 42.1642 50.3309 42.1613C49.0032 42.1949 47.6857 41.9205 46.4819 41.3596C45.2781 40.7987 44.2206 39.9666 43.3923 38.9284C41.6054 36.7735 40.7117 33.9962 40.7113 30.5965C40.6408 26.5307 41.9577 22.5624 44.4447 19.3453C46.9329 16.1211 49.8412 14.509 53.1696 14.509C55.7287 14.509 57.7178 15.2273 59.1367 16.6639C60.5555 18.1005 61.265 20.1157 61.265 22.7096C61.2309 24.4886 60.966 26.2557 60.4774 27.9666L59.4243 29.0706L46.2826 30.28C46.8804 34.2406 48.7385 36.2206 51.8567 36.2198ZM51.8567 19.925C51.1087 19.9186 50.3691 20.0833 49.6946 20.4067C49.0202 20.73 48.4287 21.2034 47.9653 21.7906C46.8708 23.1458 46.2273 24.8093 46.1252 26.5483L55.0635 25.4442C55.1571 24.7821 55.2091 24.1148 55.2192 23.4462C55.2192 21.0987 54.0984 19.9247 51.8567 19.9239V19.925Z" fill="#00A24D"/>
<path d="M63.6128 36.6682C62.2999 35.3539 61.6432 33.5842 61.6425 31.3591C61.6417 29.134 62.6578 27.2065 64.6908 25.5767C66.8002 23.921 69.4228 23.0562 72.1033 23.1325H75.6787V22.239C75.6787 20.5224 75.3277 19.3483 74.6256 18.7168C73.9236 18.0853 72.6093 17.77 70.6827 17.7707C69.7088 17.7989 68.744 17.9668 67.8179 18.2695C66.5393 18.6764 65.2992 19.1958 64.1122 19.8214L62.5875 15.669C64.3006 14.5102 66.1443 13.5573 68.0805 12.8302C69.7697 12.0939 71.5772 11.6665 73.4173 11.5682C78.918 11.5682 81.6691 14.2317 81.6706 19.5587V29.8627C81.7617 32.1666 82.392 34.4171 83.5107 36.4332L77.9372 38.7987C77.1607 37.35 76.51 35.8373 75.9923 34.2772C74.065 37.1863 71.6299 38.6408 68.6869 38.6408C67.7513 38.6749 66.8188 38.5175 65.9462 38.1783C65.0737 37.8391 64.2796 37.3253 63.6128 36.6682ZM70.8944 33.2779C72.2944 33.2779 73.8892 32.5596 75.6787 31.123V27.6008C74.1982 27.2303 72.6825 27.0188 71.1572 26.9701C68.9502 26.9701 67.8464 27.9513 67.846 29.9136C67.8011 30.8064 68.1026 31.6819 68.6874 32.3579C68.9666 32.6619 69.3087 32.9014 69.6898 33.0599C70.0709 33.2184 70.4819 33.292 70.8944 33.2757V33.2779Z" fill="#00A599"/>
<path d="M84.0472 7.83312V2.10334L91.1414 0.736023L90.4586 7.83312H96.8181L96.2393 12.1435H90.2475L89.9847 23.1302C89.9847 24.7778 90.1427 25.873 90.4586 26.4158C90.6441 26.6985 90.9044 26.9242 91.2104 27.068C91.5165 27.2117 91.8563 27.2678 92.1923 27.23C93.3337 27.1818 94.4644 26.9877 95.5566 26.6525L95.8725 30.3842C93.5584 32.3126 91.5261 33.2764 89.7758 33.2757C88.9594 33.2979 88.1484 33.1371 87.4023 32.8051C86.6562 32.473 85.9938 31.9782 85.4638 31.3569C84.2975 29.9513 83.6978 28.1611 83.7817 26.3365L84.0975 20.4488L84.046 12.1435H80.4169L80.9955 7.83312H84.0472Z" fill="#00767A"/>
<path d="M62.8485 44.477C62.8549 43.2064 62.935 41.9373 63.0884 40.676C63.3484 40.8201 63.4764 40.8905 63.7402 41.0268C63.6377 42.2245 63.6095 42.8298 63.5995 44.0496C64.5279 43.2587 64.9718 42.8469 65.8165 41.9989C66.0836 42.1098 66.2177 42.1652 66.4871 42.2666C65.6307 43.2005 64.7174 44.0805 63.7524 44.9015C63.3899 44.7369 63.2088 44.6527 62.8485 44.477Z" fill="#00767A"/>
<path d="M68.8222 43.0365C69.1209 43.1202 69.2705 43.1595 69.5698 43.2338C69.7332 44.4861 69.9685 45.728 70.2748 46.9533C69.96 46.8929 69.8026 46.8607 69.4889 46.7915C69.4335 46.5265 69.4063 46.3941 69.3548 46.1292C68.6437 45.9656 68.2895 45.8725 67.585 45.663C67.4093 45.8681 67.3201 45.9701 67.1416 46.1724C66.8318 46.0771 66.6772 46.0272 66.3657 45.923C67.2422 45.0114 68.0626 44.0475 68.8222 43.0365ZM68.0141 45.1553C68.4985 45.295 68.7417 45.3587 69.23 45.4762C69.1192 44.8588 69.0705 44.5501 68.9851 43.9338C68.6082 44.4276 68.4143 44.6731 68.0141 45.1553Z" fill="#00767A"/>
<path d="M73.7516 47.476C73.4727 47.4583 73.1999 47.3871 72.948 47.2665C72.713 47.1548 72.5022 46.9983 72.3273 46.8059C72.1625 46.6246 72.0378 46.4106 71.9614 46.1779C71.8875 45.947 71.8686 45.702 71.906 45.4624C71.9393 45.222 72.0244 44.9916 72.1554 44.7873C72.2841 44.5871 72.4483 44.4121 72.6398 44.2708C72.8334 44.1281 73.0502 44.0199 73.2806 43.951C73.5179 43.8802 73.7663 43.8537 74.0133 43.8728C74.3059 43.8908 74.5909 43.9733 74.8479 44.1145C75.094 44.2483 75.3099 44.4315 75.482 44.6527C75.2392 44.7635 75.1168 44.8189 74.8685 44.9298C74.759 44.8015 74.625 44.6964 74.4744 44.6205C74.1681 44.4645 73.8131 44.4337 73.4845 44.5346C73.3324 44.5823 73.1904 44.6574 73.0654 44.7563C72.9414 44.8531 72.8369 44.9725 72.7573 45.1082C72.6759 45.246 72.6246 45.3993 72.6066 45.5583C72.5863 45.7176 72.6022 45.8793 72.6531 46.0316C72.7038 46.1834 72.7851 46.3232 72.8919 46.4423C73.0037 46.5662 73.1383 46.6674 73.2883 46.7405C73.4475 46.818 73.6203 46.8635 73.797 46.8746C73.9888 46.8901 74.1816 46.8642 74.3624 46.7987C74.5276 46.7398 74.6787 46.6469 74.8058 46.526C75.0591 46.6529 75.1871 46.715 75.446 46.8364C75.2445 47.0564 74.9952 47.2271 74.7172 47.3352C74.4105 47.4559 74.08 47.5041 73.7516 47.476Z" fill="#00767A"/>
<path d="M78.2497 43.8961C78.5501 43.869 78.7003 43.8534 79.0001 43.8174C79.584 44.9325 80.2317 46.0131 80.94 47.0536C80.6302 47.1091 80.475 47.1318 80.1641 47.1767C80.0206 46.9483 79.9502 46.8336 79.8111 46.6036C79.1033 46.6995 78.748 46.7366 78.0347 46.7893C77.946 47.0431 77.9006 47.17 77.8069 47.4233C77.4921 47.4438 77.3347 47.4521 77.0193 47.4638C77.4982 46.2994 77.909 45.1082 78.2497 43.8961ZM78.2497 46.1635C78.7391 46.1231 78.9836 46.0976 79.4691 46.0361C79.1532 45.4968 79.0013 45.2252 78.7098 44.6787C78.5374 45.274 78.4448 45.571 78.2481 46.1635H78.2497Z" fill="#00767A"/>
<path d="M84.1687 42.6685L84.3593 43.2449C83.9132 43.3923 83.6881 43.461 83.2364 43.5885C83.5495 44.697 83.7064 45.2512 84.0196 46.3553C83.7347 46.4362 83.5917 46.4744 83.3046 46.5482L82.5907 43.7625C82.1356 43.8795 81.9067 43.9327 81.4478 44.0297L81.3226 43.4355C82.2873 43.2435 83.2381 42.9872 84.1687 42.6685Z" fill="#00767A"/>
<path d="M87.0595 45.3144L85.756 42.0848C85.9993 41.9867 86.12 41.9363 86.3611 41.8321C86.9153 43.1107 87.1925 43.7498 87.7467 45.0284C87.4729 45.1481 87.3349 45.2036 87.0595 45.3144Z" fill="#00767A"/>
<path d="M91.3587 43.2427C91.1211 43.3886 90.8577 43.4876 90.5828 43.5342C90.3267 43.5781 90.0644 43.5717 89.8107 43.5153C89.5716 43.4622 89.3462 43.3593 89.1494 43.2133C88.9552 43.0679 88.7976 42.8793 88.689 42.6624C88.5781 42.4477 88.5152 42.2115 88.5044 41.9701C88.4937 41.7321 88.5265 41.4941 88.6013 41.2679C88.6761 41.0395 88.7902 40.8258 88.9384 40.6366C89.2498 40.2459 89.6907 39.9797 90.1815 39.8862C90.4194 39.8421 90.6633 39.8399 90.902 39.8795C91.1377 39.9177 91.3643 39.999 91.5705 40.1195C91.7796 40.2412 91.9598 40.4068 92.0986 40.605C92.2403 40.8024 92.3342 41.0301 92.3725 41.2701C92.4104 41.5125 92.3959 41.7603 92.3303 41.9967C92.2612 42.2482 92.144 42.4838 91.9851 42.6906C91.8136 42.9131 91.6009 43.1005 91.3587 43.2427ZM91.0451 42.7228C91.1979 42.632 91.3314 42.512 91.438 42.3697C91.5397 42.2357 91.6149 42.0835 91.6596 41.9213C91.7013 41.7666 91.7108 41.6049 91.6874 41.4463C91.6639 41.2875 91.605 41.1359 91.515 41.003C91.4265 40.8688 91.31 40.7554 91.1736 40.6704C91.0398 40.5868 90.8914 40.5293 90.7363 40.5008C90.58 40.4717 90.4198 40.47 90.2629 40.4958C89.9369 40.5518 89.644 40.7288 89.4427 40.9913C89.3462 41.1179 89.2733 41.2608 89.2271 41.4131C89.1812 41.5634 89.1639 41.7209 89.1761 41.8776C89.1886 42.0367 89.2346 42.1914 89.3113 42.3315C89.387 42.4731 89.4937 42.5958 89.6233 42.6906C89.7532 42.7851 89.9012 42.8519 90.0579 42.8868C90.2216 42.9243 90.391 42.9296 90.5567 42.9023C90.7295 42.8743 90.8953 42.8133 91.0451 42.7228Z" fill="#00767A"/>
<path d="M94.5375 40.9464L92.361 38.2273C92.5865 38.0461 92.6984 37.9541 92.9195 37.7667C93.8586 38.038 94.8141 38.2489 95.7801 38.398C95.12 37.7091 94.7896 37.3644 94.129 36.676C94.3241 36.4886 94.4199 36.3939 94.6105 36.201L97.0853 38.6524C96.8525 38.8874 96.735 39.0033 96.4967 39.231C95.5145 39.0961 94.542 38.8992 93.5847 38.6413L95.1227 40.4653C94.891 40.6588 94.7741 40.7574 94.5375 40.9464Z" fill="#00767A"/>
<path d="M99.5272 35.9604C99.3806 36.1515 99.2074 36.3205 99.0129 36.4626C98.8389 36.5925 98.6432 36.6903 98.4348 36.7514C98.2577 36.8061 98.0684 36.8084 97.8899 36.758C98.013 36.4886 98.0729 36.3534 98.1887 36.0813C98.2732 36.1005 98.3615 36.0929 98.4415 36.0597C98.5526 36.0185 98.6565 35.9601 98.7496 35.8867C98.8617 35.8011 98.9618 35.7008 99.0473 35.5885C99.1369 35.4742 99.2096 35.3477 99.2634 35.2128C99.3105 35.1014 99.3332 34.9812 99.3299 34.8603C99.3302 34.8142 99.3196 34.7687 99.2991 34.7274C99.2786 34.6861 99.2487 34.6502 99.2118 34.6225C99.1751 34.5961 99.1324 34.5795 99.0875 34.5742C99.0425 34.569 98.997 34.5753 98.9553 34.5926C98.8441 34.6338 98.7407 34.6934 98.6493 34.7688C98.5413 34.8537 98.4383 34.945 98.3411 35.0421C98.1466 35.24 97.9308 35.4159 97.6977 35.5664C97.5158 35.6885 97.3061 35.7628 97.0879 35.7825C96.9878 35.7867 96.8879 35.7707 96.794 35.7356C96.7002 35.7005 96.6143 35.6469 96.5415 35.578C96.3864 35.4455 96.2862 35.26 96.2605 35.0576C96.2328 34.8371 96.256 34.6132 96.3281 34.403C96.4057 34.1673 96.5238 33.9469 96.6773 33.7518C96.8072 33.5829 96.9589 33.432 97.1284 33.3029C97.2868 33.1795 97.4649 33.0836 97.655 33.0191C97.8254 32.9585 98.0089 32.9446 98.1865 32.9786C98.1012 33.2485 98.0568 33.3832 97.9648 33.6515C97.8819 33.6361 97.7965 33.646 97.7193 33.6797C97.6157 33.7203 97.5189 33.7764 97.4322 33.846C97.3305 33.927 97.2392 34.02 97.1601 34.1231C97.0778 34.2263 97.0114 34.3412 96.9633 34.464C96.9203 34.5696 96.8983 34.6825 96.8985 34.7965C96.8978 34.8425 96.9072 34.888 96.9262 34.9298C96.9453 34.9716 96.9734 35.0086 97.0085 35.0382C97.0436 35.0678 97.0849 35.0892 97.1293 35.1009C97.1738 35.1126 97.2202 35.1143 97.2653 35.1058C97.3702 35.0767 97.4671 35.024 97.5485 34.9517C97.6466 34.8702 97.752 34.7755 97.8623 34.6668C98.0512 34.478 98.2569 34.3067 98.4769 34.1553C98.6625 34.0229 98.8732 33.9297 99.096 33.8815C99.1922 33.8611 99.2917 33.8609 99.388 33.8809C99.4843 33.9008 99.5755 33.9404 99.6558 33.9973C99.7409 34.0549 99.8136 34.1292 99.8694 34.2155C99.9252 34.3019 99.963 34.3987 99.9805 34.5C100.021 34.7387 100.003 34.9838 99.9252 35.2133C99.8388 35.4844 99.7039 35.7375 99.5272 35.9604Z" fill="#00767A"/>
</g>
<defs>
<clipPath id="clip0_11_1274">
<rect width="100" height="47.481" fill="white"/>
</clipPath>
</defs>
</svg>
