<svg width="37" height="30" viewBox="0 0 37 30" fill="none" xmlns="http://www.w3.org/2000/svg">
<path d="M31.0653 0.96875C32.5911 0.96875 34.0543 1.5413 35.1332 2.56045C36.2121 3.5796 36.8182 4.96186 36.8182 6.40316V23.7933C36.8182 25.2346 36.2121 26.6168 35.1332 27.636C34.0543 28.6551 32.5911 29.2277 31.0653 29.2277H5.75284C4.22709 29.2277 2.76383 28.6551 1.68497 27.636C0.606101 26.6168 0 25.2346 0 23.7933V6.40316C0 4.96186 0.606101 3.5796 1.68497 2.56045C2.76383 1.5413 4.22709 0.96875 5.75284 0.96875H31.0653ZM34.517 9.57903L18.9936 18.2089C18.8468 18.2903 18.6828 18.3399 18.5133 18.3542C18.3437 18.3685 18.173 18.347 18.0133 18.2915L17.8246 18.2089L2.30114 9.58337V23.7933C2.30114 24.658 2.6648 25.4874 3.31212 26.0989C3.95944 26.7104 4.83739 27.0539 5.75284 27.0539H31.0653C31.9808 27.0539 32.8587 26.7104 33.5061 26.0989C34.1534 25.4874 34.517 24.658 34.517 23.7933V9.57903ZM31.0653 3.14251H5.75284C4.83739 3.14251 3.95944 3.48604 3.31212 4.09753C2.6648 4.70902 2.30114 5.53838 2.30114 6.40316V7.05964L18.4091 16.0112L34.517 7.05529V6.40316C34.517 5.53838 34.1534 4.70902 33.5061 4.09753C32.8587 3.48604 31.9808 3.14251 31.0653 3.14251Z" fill="#0FB6CC"/>
</svg>
