<svg width="30" height="30" viewBox="0 0 30 30" fill="none" xmlns="http://www.w3.org/2000/svg">
<path fill-rule="evenodd" clip-rule="evenodd" d="M21.7688 17.9029C21.3963 17.7275 19.57 16.8821 19.23 16.7643C18.89 16.6478 18.6425 16.5901 18.3937 16.941C18.1462 17.2895 17.435 18.0784 17.2188 18.3115C17.0012 18.5458 16.785 18.5741 16.4137 18.3998C16.0425 18.2232 14.845 17.8547 13.4263 16.6631C12.3225 15.7352 11.5763 14.5896 11.36 14.2387C11.1438 13.889 11.3363 13.6994 11.5225 13.5252C11.69 13.3686 11.8937 13.1166 12.08 12.9129C12.2662 12.708 12.3275 12.562 12.4513 12.3277C12.5763 12.0945 12.5138 11.8908 12.42 11.7154C12.3275 11.54 11.585 9.81735 11.275 9.11676C10.9738 8.43501 10.6675 8.52803 10.44 8.51626C10.2225 8.50684 9.975 8.50448 9.7275 8.50448C9.48 8.50448 9.0775 8.59161 8.7375 8.9425C8.39625 9.2922 7.4375 10.1388 7.4375 11.8614C7.4375 13.5828 8.7675 15.2466 8.95375 15.4809C9.14 15.714 11.5725 19.2488 15.2987 20.7641C16.1863 21.1244 16.8775 21.3399 17.4163 21.5001C18.3062 21.7673 19.1163 21.7297 19.7563 21.639C20.4688 21.5389 21.9538 20.7924 22.2638 19.9753C22.5725 19.1581 22.5725 18.4575 22.48 18.3115C22.3875 18.1655 22.14 18.0784 21.7675 17.9029H21.7688ZM14.9913 26.6196H14.9862C12.773 26.62 10.6005 26.0596 8.69625 24.9971L8.24625 24.7451L3.56875 25.9014L4.8175 21.606L4.52375 21.1657C3.28642 19.3104 2.63162 17.1632 2.635 14.9722C2.6375 8.55511 8.18 3.33428 14.9963 3.33428C18.2962 3.33428 21.3988 4.54705 23.7313 6.74654C24.8817 7.82577 25.7936 9.10918 26.4141 10.5225C27.0346 11.9359 27.3514 13.4511 27.3463 14.9805C27.3438 21.3976 21.8013 26.6196 14.9913 26.6196ZM25.5063 5.07573C24.129 3.76984 22.4903 2.73441 20.6851 2.02942C18.8799 1.32443 16.9442 0.96392 14.99 0.968768C6.7975 0.968768 0.1275 7.25049 0.125 14.9711C0.121204 17.4281 0.805468 19.8427 2.10875 21.971L0 29.2277L7.88 27.2802C10.0598 28.3989 12.5026 28.9851 14.985 28.9851H14.9913C23.1838 28.9851 29.8538 22.7034 29.8563 14.9817C29.8623 13.1416 29.481 11.3187 28.7343 9.61839C27.9876 7.91807 26.8905 6.37408 25.5063 5.07573Z" fill="#0FB6CC"/>
</svg>
